<svg xmlns="http://www.w3.org/2000/svg" version="1.1" xmlns:xlink="http://www.w3.org/1999/xlink" xmlns:svgjs="http://svgjs.dev/svgjs" width="1000" height="750" viewBox="0 0 1000 750"><rect width="1000" height="750" fill="#5593cc"></rect><g transform="matrix(0.834,0,0,0.834,82.49454545454546,295.30483127023393)"><svg viewBox="0 0 396 76" data-background-color="#5593cc" preserveAspectRatio="xMidYMid meet" height="191" width="1000" xmlns="http://www.w3.org/2000/svg" xmlns:xlink="http://www.w3.org/1999/xlink"><g id="tight-bounds" transform="matrix(1,0,0,1,0.2400000000000091,0.02298155274036162)"><svg viewBox="0 0 395.52 75.95403689451925" height="75.95403689451925" width="395.52"><g><svg viewBox="0 0 500.5549637704521 96.12452008989601" height="75.95403689451925" width="395.52"><g><svg viewBox="0 0 500.5549637704521 96.12452008989601" height="96.12452008989601" width="500.5549637704521"><g id="textblocktransform"><svg viewBox="0 0 500.5549637704521 96.12452008989601" height="96.12452008989601" width="500.5549637704521" id="textblock"><g><svg viewBox="0 0 500.5549637704521 57.8435" height="57.8435" width="500.5549637704521"><g><svg><g></g><g></g></svg></g><g><svg><g></g><g><svg></svg></g></svg></g><g id="text-0"><svg viewBox="0 0 500.5549637704521 57.8435" height="57.8435" width="500.5549637704521"><g><svg xmlns="http://www.w3.org/2000/svg" xmlns:xlink="http://www.w3.org/1999/xlink" xmlns:a="http://ns.adobe.com/AdobeSVGViewerExtensions/3.0/" version="1.1" x="0" y="0" viewBox="0 0 98 62.035" overflow="visible" enable-background="new -1 -18.982 100 100" xml:space="preserve" height="57.8435" width="91.37846377045216" class="icon-dxe-0" data-fill-palette-color="accent" id="dxe-0"><path fill="#ffd500" d="M49 62.035C22.833 62.035 2.326 34.221 1.465 33.036L0 31.018 1.465 28.999C2.326 27.814 22.833 0 49 0S95.674 27.814 96.534 28.999L98 31.018 96.534 33.037C95.674 34.221 75.166 62.035 49 62.035M8.616 31.014C13.669 37.151 30.117 55.166 49 55.166 67.928 55.166 84.339 37.16 89.386 31.021 84.331 24.883 67.885 6.869 49 6.869 30.072 6.869 13.661 24.874 8.616 31.014" data-fill-palette-color="accent"></path><circle fill="#ffd500" cx="49" cy="31.018" r="19" data-fill-palette-color="accent"></circle></svg></g><g transform="matrix(1,0,0,1,105.03496377045215,0.5569756770310974)"><svg width="395.52" viewBox="3.05 -35.1 249.23 35.75" height="56.729548645937804" data-palette-color="#222222"><g class="wordmark-text-0" data-fill-palette-color="primary"><path d="M16.6-35.1L16.6-35.1Q18.8-35.1 20.38-35 21.95-34.9 23.28-34.68 24.6-34.45 26-34.1L26-34.1 25.55-30.75Q24.05-30.9 22.78-31 21.5-31.1 20.05-31.15 18.6-31.2 16.6-31.2L16.6-31.2Q13.25-31.2 11.3-29.9 9.35-28.6 8.53-25.55 7.7-22.5 7.7-17.25L7.7-17.25Q7.7-12 8.53-8.95 9.35-5.9 11.3-4.6 13.25-3.3 16.6-3.3L16.6-3.3Q19.8-3.3 21.98-3.43 24.15-3.55 26.25-3.85L26.25-3.85 26.7-0.55Q24.55 0.05 22.28 0.33 20 0.6 16.6 0.6L16.6 0.6Q11.65 0.6 8.68-1.13 5.7-2.85 4.38-6.75 3.05-10.65 3.05-17.25L3.05-17.25Q3.05-23.85 4.38-27.75 5.7-31.65 8.68-33.38 11.65-35.1 16.6-35.1ZM32.4-24.35L35.7-24.35 36.25-19.7 36.65-18.95 36.65 0 32.4 0 32.4-24.35ZM46.55-24.95L47.65-24.95 47.15-20.95 45.75-20.95Q43.6-20.95 41.45-20.08 39.3-19.2 36.2-17.6L36.2-17.6 35.85-20.25Q38.55-22.45 41.27-23.7 44-24.95 46.55-24.95L46.55-24.95ZM52.3-24.35L56.55-24.35 56.55-7.25Q56.5-4.95 57.4-4 58.3-3.05 60.4-3.05L60.4-3.05Q62.45-3.05 64.47-4.03 66.5-5 69.34-6.85L69.34-6.85 69.9-3.9Q67.05-1.65 64.37-0.5 61.7 0.65 58.95 0.65L58.95 0.65Q52.3 0.65 52.3-6.05L52.3-6.05 52.3-24.35ZM68.9-24.35L73.15-24.35 73.15 0 69.75 0 69.34-4.6 68.9-5.35 68.9-24.35ZM81.14-24.35L85.34-24.35 85.34 0 81.14 0 81.14-24.35ZM82.24-34.7L84.24-34.7Q85.54-34.7 85.54-33.4L85.54-33.4 85.54-30.55Q85.54-29.25 84.24-29.25L84.24-29.25 82.24-29.25Q80.94-29.25 80.94-30.55L80.94-30.55 80.94-33.4Q80.94-34.7 82.24-34.7L82.24-34.7ZM101.44-24.95L101.44-24.95Q103.04-24.95 104.84-24.85 106.64-24.75 108.42-24.6 110.19-24.45 111.69-24.2L111.69-24.2 111.34-21.1Q109.04-21.2 106.72-21.28 104.39-21.35 102.09-21.35L102.09-21.35Q99.84-21.4 98.54-21.25 97.24-21.1 96.67-20.45 96.09-19.8 96.09-18.25L96.09-18.25Q96.09-16.35 96.99-15.75 97.89-15.15 99.64-14.75L99.64-14.75 106.74-13.15Q109.64-12.45 111.02-11 112.39-9.55 112.39-6.45L112.39-6.45Q112.39-3.45 111.27-1.95 110.14-0.45 107.84 0.05 105.54 0.55 101.99 0.55L101.99 0.55Q100.69 0.55 98.12 0.45 95.54 0.35 92.44-0.15L92.44-0.15 92.74-3.25Q93.94-3.2 95.29-3.13 96.64-3.05 98.12-3.05 99.59-3.05 101.14-3.05L101.14-3.05Q103.89-3.05 105.44-3.3 106.99-3.55 107.64-4.28 108.29-5 108.29-6.45L108.29-6.45Q108.29-8.25 107.24-8.85 106.19-9.45 104.44-9.85L104.44-9.85 97.44-11.45Q95.44-11.95 94.24-12.78 93.04-13.6 92.49-14.93 91.94-16.25 91.94-18.25L91.94-18.25Q91.94-21.1 92.94-22.55 93.94-24 96.04-24.5 98.14-25 101.44-24.95ZM128.74-24.95L128.74-24.95Q134.24-24.95 136.71-22.95 139.19-20.95 139.19-17L139.19-17Q139.24-13.75 137.84-11.93 136.44-10.1 133.39-10.1L133.39-10.1 119.19-10.1 119.19-13.4 132.29-13.4Q133.94-13.4 134.44-14.53 134.94-15.65 134.94-17L134.94-17Q134.89-19.35 133.54-20.35 132.19-21.35 128.94-21.35L128.94-21.35Q126.29-21.35 124.76-20.58 123.24-19.8 122.61-17.88 121.99-15.95 121.99-12.5L121.99-12.5Q121.99-8.6 122.76-6.55 123.54-4.5 125.24-3.75 126.94-3 129.74-3L129.74-3Q131.69-3 134.01-3.18 136.34-3.35 138.19-3.6L138.19-3.6 138.64-0.75Q137.49-0.3 135.81 0 134.14 0.3 132.36 0.45 130.59 0.6 129.19 0.6L129.19 0.6Q124.99 0.6 122.44-0.68 119.89-1.95 118.71-4.78 117.54-7.6 117.54-12.25L117.54-12.25Q117.54-17.05 118.71-19.83 119.89-22.6 122.36-23.78 124.84-24.95 128.74-24.95ZM154.94-34.5L159.54-34.5Q160.14-34.5 160.59-34.18 161.04-33.85 161.19-33.3L161.19-33.3 172.29 0 167.74 0 158.79-28.3Q158.59-29 158.36-29.73 158.14-30.45 157.94-31.1L157.94-31.1 156.54-31.1Q156.34-30.45 156.14-29.73 155.94-29 155.69-28.3L155.69-28.3 146.74 0 142.19 0 153.29-33.3Q153.44-33.85 153.89-34.18 154.34-34.5 154.94-34.5L154.94-34.5ZM148.44-14.6L165.94-14.6 165.94-10.8 148.44-10.8 148.44-14.6ZM176.73-35L180.98-35 180.93-6.7Q180.93-5.1 181.81-4.28 182.68-3.45 184.28-3.45L184.28-3.45 186.63-3.45 187.13-0.2Q186.68 0 185.86 0.15 185.03 0.3 184.16 0.38 183.28 0.45 182.68 0.45L182.68 0.45Q179.98 0.45 178.36-1.15 176.73-2.75 176.73-5.75L176.73-5.75 176.73-35ZM201.53-24.95L201.53-24.95Q207.03-24.95 209.51-22.95 211.98-20.95 211.98-17L211.98-17Q212.03-13.75 210.63-11.93 209.23-10.1 206.18-10.1L206.18-10.1 191.98-10.1 191.98-13.4 205.08-13.4Q206.73-13.4 207.23-14.53 207.73-15.65 207.73-17L207.73-17Q207.68-19.35 206.33-20.35 204.98-21.35 201.73-21.35L201.73-21.35Q199.08-21.35 197.56-20.58 196.03-19.8 195.41-17.88 194.78-15.95 194.78-12.5L194.78-12.5Q194.78-8.6 195.56-6.55 196.33-4.5 198.03-3.75 199.73-3 202.53-3L202.53-3Q204.48-3 206.81-3.18 209.13-3.35 210.98-3.6L210.98-3.6 211.43-0.75Q210.28-0.3 208.61 0 206.93 0.3 205.16 0.45 203.38 0.6 201.98 0.6L201.98 0.6Q197.78 0.6 195.23-0.68 192.68-1.95 191.51-4.78 190.33-7.6 190.33-12.25L190.33-12.25Q190.33-17.05 191.51-19.83 192.68-22.6 195.16-23.78 197.63-24.95 201.53-24.95ZM218.38-24.35L221.68-24.35 222.23-19.7 222.63-18.95 222.63 0 218.38 0 218.38-24.35ZM232.53-24.95L233.63-24.95 233.13-20.95 231.73-20.95Q229.58-20.95 227.43-20.08 225.28-19.2 222.18-17.6L222.18-17.6 221.83-20.25Q224.53-22.45 227.25-23.7 229.98-24.95 232.53-24.95L232.53-24.95ZM240.28-31.55L244.53-31.55 244.53-6.7Q244.53-4.95 245.28-4.2 246.03-3.45 247.83-3.45L247.83-3.45 251.53-3.45 252.03-0.2Q251.23 0 250.18 0.15 249.13 0.3 248.13 0.38 247.13 0.45 246.53 0.45L246.53 0.45Q243.48 0.45 241.88-1.25 240.28-2.95 240.28-6.15L240.28-6.15 240.28-31.55ZM240.68-24.35L252.28-24.35 252.28-21 235.88-21 235.88-24.1 240.68-24.35Z" fill="#222222" data-fill-palette-color="primary"></path></g></svg></g></svg></g></svg></g><g transform="matrix(1,0,0,1,105.11654239179495,71.23598492613841)"><svg viewBox="0 0 290.3218789868622 24.888535163757595" height="24.888535163757595" width="290.3218789868622"><g transform="matrix(1,0,0,1,0,0)"><svg width="290.3218789868622" viewBox="4.38 -33.75 454.38 38.959999999999994" height="24.888535163757595" data-palette-color="#052a57"><path d="M8.33 0L4.38 0 4.38-31.25 19.79-31.25 19.79-27.71 8.33-27.71 8.33-21.04 18.75-21.04 18.75-17.5 8.33-17.5 8.33 0ZM33.68 0.42L33.68 0.42Q30.66 0.42 28.16-1.04 25.66-2.5 24.18-4.97 22.71-7.43 22.71-10.42L22.71-10.42Q22.71-13.44 24.18-15.89 25.66-18.33 28.16-19.79 30.66-21.25 33.68-21.25L33.68-21.25Q36.73-21.25 39.22-19.79 41.7-18.33 43.17-15.89 44.65-13.44 44.65-10.42L44.65-10.42Q44.65-7.43 43.17-4.97 41.7-2.5 39.22-1.04 36.73 0.42 33.68 0.42ZM33.68-3.13L33.68-3.13Q35.69-3.13 37.32-4.11 38.96-5.1 39.93-6.75 40.9-8.4 40.9-10.42L40.9-10.42Q40.9-12.43 39.93-14.08 38.96-15.73 37.32-16.72 35.69-17.71 33.68-17.71L33.68-17.71Q31.66-17.71 30.03-16.72 28.4-15.73 27.43-14.08 26.46-12.43 26.46-10.42L26.46-10.42Q26.46-8.4 27.43-6.75 28.4-5.1 30.03-4.11 31.66-3.13 33.68-3.13ZM59.44 0.42L59.44 0.42Q56.38 0.42 53.88-1.04 51.38-2.5 49.89-4.97 48.4-7.43 48.4-10.42L48.4-10.42Q48.4-13.4 49.89-15.87 51.38-18.33 53.88-19.79 56.38-21.25 59.44-21.25L59.44-21.25Q61.7-21.25 63.68-20.45 65.65-19.65 67.15-18.33L67.15-18.33 66-13.61Q65.13-15.35 63.38-16.53 61.63-17.71 59.4-17.71L59.4-17.71Q57.39-17.71 55.74-16.72 54.09-15.73 53.12-14.08 52.15-12.43 52.15-10.42L52.15-10.42Q52.15-8.44 53.12-6.77 54.09-5.1 55.74-4.11 57.39-3.13 59.4-3.13L59.4-3.13Q61.63-3.13 63.38-4.27 65.13-5.42 66-7.22L66-7.22 67.15-2.5Q65.65-1.18 63.68-0.38 61.7 0.42 59.44 0.42ZM79.68 0.42L79.68 0.42Q77.49 0.42 75.58-0.68 73.67-1.77 72.49-3.85 71.31-5.94 71.31-8.85L71.31-8.85 71.31-20.83 75.06-20.83 75.06-9.38Q75.06-6.91 76.54-5.02 78.01-3.13 80.69-3.13L80.69-3.13Q82.87-3.13 84.59-4.7 86.31-6.28 86.31-9.27L86.31-9.27 86.31-20.83 90.06-20.83 90.06 0 86.59 0 86.59-3.37Q85.44-1.53 83.62-0.56 81.8 0.42 79.68 0.42ZM102.11 0.42L102.11 0.42Q100.51 0.42 98.69-0.19 96.87-0.8 95.55-2.22L95.55-2.22 96.59-6.32Q97.56-4.69 99.09-3.73 100.62-2.78 102.35-2.78L102.35-2.78Q104.02-2.78 104.85-3.59 105.68-4.41 105.68-5.59L105.68-5.59Q105.68-6.94 104.8-7.57 103.91-8.19 103.22-8.44L103.22-8.44 100.41-9.51Q99.64-9.83 98.57-10.43 97.49-11.04 96.69-12.19 95.89-13.33 95.89-15.17L95.89-15.17Q95.89-16.84 96.69-18.23 97.49-19.62 98.95-20.43 100.41-21.25 102.39-21.25L102.39-21.25Q103.95-21.25 105.65-20.69 107.35-20.14 108.53-18.82L108.53-18.82 107.49-14.72Q106.66-16.25 105.23-17.15 103.81-18.06 102.28-18.06L102.28-18.06Q100.86-18.06 100.04-17.26 99.23-16.46 99.23-15.42L99.23-15.42Q99.23-14.58 99.78-13.92 100.34-13.26 101.45-12.85L101.45-12.85 104.26-11.77Q105.02-11.49 106.15-10.87 107.28-10.24 108.15-9.06 109.02-7.88 109.02-5.87L109.02-5.87Q109.02-3.06 107.06-1.32 105.09 0.42 102.11 0.42ZM115.47 5.21L111.31 5.21Q112.87 3.26 113.82 0.69 114.78-1.88 114.78-5.21L114.78-5.21 118.53-5.21Q118.53-2.26 117.71 0.36 116.9 2.99 115.47 5.21L115.47 5.21ZM140.4 0L136.65 0 136.65-17.71 131.93-17.71 131.93-20.83 136.75-20.83 136.75-26.81Q136.75-30.21 138.77-31.98 140.78-33.75 143.56-33.75L143.56-33.75Q144.6-33.75 145.69-33.51 146.79-33.26 147.76-32.67L147.76-32.67 146.86-29.03Q145.4-30.63 143.45-30.63L143.45-30.63Q142.27-30.63 141.28-29.83 140.3-29.03 140.3-26.74L140.3-26.74 140.3-20.83 145.47-20.83 145.47-17.71 140.4-17.71 140.4 0ZM159.36 0.42L159.36 0.42Q156.33 0.42 153.83-1.04 151.33-2.5 149.86-4.97 148.38-7.43 148.38-10.42L148.38-10.42Q148.38-13.44 149.86-15.89 151.33-18.33 153.83-19.79 156.33-21.25 159.36-21.25L159.36-21.25Q162.41-21.25 164.89-19.79 167.38-18.33 168.85-15.89 170.33-13.44 170.33-10.42L170.33-10.42Q170.33-7.43 168.85-4.97 167.38-2.5 164.89-1.04 162.41 0.42 159.36 0.42ZM159.36-3.13L159.36-3.13Q161.37-3.13 163-4.11 164.63-5.1 165.61-6.75 166.58-8.4 166.58-10.42L166.58-10.42Q166.58-12.43 165.61-14.08 164.63-15.73 163-16.72 161.37-17.71 159.36-17.71L159.36-17.71Q157.34-17.71 155.71-16.72 154.08-15.73 153.11-14.08 152.13-12.43 152.13-10.42L152.13-10.42Q152.13-8.4 153.11-6.75 154.08-5.1 155.71-4.11 157.34-3.13 159.36-3.13ZM179.28 0L175.53 0 175.53-20.83 179.01-20.83 179.01-17.01Q180.12-18.85 181.96-19.95 183.8-21.04 186.33-21.04L186.33-21.04 187.27-17.29Q186.61-17.5 185.74-17.5L185.74-17.5Q182.82-17.5 181.05-15.64 179.28-13.78 179.28-10.35L179.28-10.35 179.28 0ZM210.49 0.28L210.49 0.28Q207.65 0.28 205.29-1.16 202.92-2.6 201.52-5.03 200.11-7.47 200.11-10.42L200.11-10.42Q200.11-13.37 201.52-15.8 202.92-18.23 205.29-19.67 207.65-21.11 210.49-21.11L210.49-21.11Q212.65-21.11 214.54-20.31 216.43-19.51 217.82-18.09L217.82-18.09 217.82-20.83 221.29-20.83 221.29 0 217.82 0 217.82-2.74Q216.43-1.35 214.54-0.54 212.65 0.28 210.49 0.28ZM210.98-3.13L210.98-3.13Q212.96-3.13 214.57-4.11 216.19-5.1 217.14-6.75 218.1-8.4 218.1-10.42L218.1-10.42Q218.1-12.43 217.14-14.08 216.19-15.73 214.57-16.72 212.96-17.71 210.98-17.71L210.98-17.71Q209-17.71 207.39-16.72 205.77-15.73 204.82-14.08 203.86-12.43 203.86-10.42L203.86-10.42Q203.86-8.4 204.82-6.75 205.77-5.1 207.39-4.11 209-3.13 210.98-3.13ZM249.17 0.28L249.17 0.28Q247.02 0.28 245.14-0.54 243.27-1.35 241.84-2.74L241.84-2.74 241.84 0 238.37 0 238.37-33.33 242.12-33.33 242.12-18.37Q243.51-19.65 245.31-20.38 247.12-21.11 249.17-21.11L249.17-21.11Q252.05-21.11 254.39-19.67 256.74-18.23 258.14-15.8 259.55-13.37 259.55-10.42L259.55-10.42Q259.55-7.47 258.14-5.03 256.74-2.6 254.39-1.16 252.05 0.28 249.17 0.28ZM248.68-3.13L248.68-3.13Q250.66-3.13 252.28-4.11 253.89-5.1 254.85-6.75 255.8-8.4 255.8-10.42L255.8-10.42Q255.8-12.43 254.85-14.08 253.89-15.73 252.28-16.72 250.66-17.71 248.68-17.71L248.68-17.71Q246.7-17.71 245.09-16.72 243.47-15.73 242.52-14.08 241.56-12.43 241.56-10.42L241.56-10.42Q241.56-8.4 242.52-6.75 243.47-5.1 245.09-4.11 246.7-3.13 248.68-3.13ZM274.69 0.42L274.69 0.42Q271.42 0.42 268.84-1.04 266.25-2.5 264.77-5.02 263.3-7.53 263.3-10.63L263.3-10.63Q263.3-13.58 264.72-15.99 266.15-18.4 268.56-19.83 270.97-21.25 273.89-21.25L273.89-21.25Q276.77-21.25 279.17-19.88 281.56-18.51 282.99-16.18 284.41-13.85 284.41-10.9L284.41-10.9 284.41-9.38 270.8-9.38Q269.9-9.38 268.96-9.44 268.02-9.51 267.12-9.65L267.12-9.65Q267.5-6.88 269.64-5 271.77-3.13 274.72-3.13L274.72-3.13Q276.7-3.13 278.4-4.03 280.1-4.93 281.15-6.42L281.15-6.42 282.19-2.15Q280.69-0.94 278.77-0.26 276.84 0.42 274.69 0.42ZM267.01-12.19L267.01-12.19Q268.89-12.5 270.8-12.5L270.8-12.5 277.71-12.5Q278.47-12.5 279.22-12.45 279.97-12.4 280.73-12.33L280.73-12.33Q280.24-14.76 278.3-16.34 276.35-17.92 273.89-17.92L273.89-17.92Q271.35-17.92 269.44-16.23 267.53-14.55 267.01-12.19ZM295.59 0L291.84 0 291.84-17.71 287.12-17.71 287.12-20.83 291.94-20.83 291.94-27.78 295.48-27.78 295.48-20.83 300.66-20.83 300.66-17.71 295.59-17.71 295.59 0ZM311.21 0L307.46 0 307.46-17.71 302.74-17.71 302.74-20.83 307.56-20.83 307.56-27.78 311.11-27.78 311.11-20.83 316.28-20.83 316.28-17.71 311.21-17.71 311.21 0ZM330.58 0.42L330.58 0.42Q327.32 0.42 324.73-1.04 322.15-2.5 320.67-5.02 319.19-7.53 319.19-10.63L319.19-10.63Q319.19-13.58 320.62-15.99 322.04-18.4 324.45-19.83 326.87-21.25 329.78-21.25L329.78-21.25Q332.67-21.25 335.06-19.88 337.46-18.51 338.88-16.18 340.3-13.85 340.3-10.9L340.3-10.9 340.3-9.38 326.69-9.38Q325.79-9.38 324.85-9.44 323.92-9.51 323.01-9.65L323.01-9.65Q323.4-6.88 325.53-5 327.67-3.13 330.62-3.13L330.62-3.13Q332.6-3.13 334.3-4.03 336-4.93 337.04-6.42L337.04-6.42 338.08-2.15Q336.59-0.94 334.66-0.26 332.74 0.42 330.58 0.42ZM322.91-12.19L322.91-12.19Q324.78-12.5 326.69-12.5L326.69-12.5 333.6-12.5Q334.37-12.5 335.11-12.45 335.86-12.4 336.62-12.33L336.62-12.33Q336.14-14.76 334.19-16.34 332.25-17.92 329.78-17.92L329.78-17.92Q327.25-17.92 325.34-16.23 323.43-14.55 322.91-12.19ZM349.05 0L345.3 0 345.3-20.83 348.77-20.83 348.77-17.01Q349.89-18.85 351.73-19.95 353.57-21.04 356.1-21.04L356.1-21.04 357.04-17.29Q356.38-17.5 355.51-17.5L355.51-17.5Q352.59-17.5 350.82-15.64 349.05-13.78 349.05-10.35L349.05-10.35 349.05 0ZM375.09 0L371.34 0 371.34-20.83 374.81-20.83 374.81-17.01Q375.92-18.85 377.76-19.95 379.6-21.04 382.14-21.04L382.14-21.04 383.08-17.29Q382.42-17.5 381.55-17.5L381.55-17.5Q378.63-17.5 376.86-15.64 375.09-13.78 375.09-10.35L375.09-10.35 375.09 0ZM396.48 0.42L396.48 0.42Q393.45 0.42 390.95-1.04 388.45-2.5 386.98-4.97 385.5-7.43 385.5-10.42L385.5-10.42Q385.5-13.44 386.98-15.89 388.45-18.33 390.95-19.79 393.45-21.25 396.48-21.25L396.48-21.25Q399.53-21.25 402.01-19.79 404.5-18.33 405.97-15.89 407.45-13.44 407.45-10.42L407.45-10.42Q407.45-7.43 405.97-4.97 404.5-2.5 402.01-1.04 399.53 0.42 396.48 0.42ZM396.48-3.13L396.48-3.13Q398.49-3.13 400.12-4.11 401.75-5.1 402.73-6.75 403.7-8.4 403.7-10.42L403.7-10.42Q403.7-12.43 402.73-14.08 401.75-15.73 400.12-16.72 398.49-17.71 396.48-17.71L396.48-17.71Q394.46-17.71 392.83-16.72 391.2-15.73 390.23-14.08 389.25-12.43 389.25-10.42L389.25-10.42Q389.25-8.4 390.23-6.75 391.2-5.1 392.83-4.11 394.46-3.13 396.48-3.13ZM421.58 0.28L421.58 0.28Q418.73 0.28 416.37-1.16 414.01-2.6 412.6-5.03 411.2-7.47 411.2-10.42L411.2-10.42Q411.2-13.37 412.6-15.8 414.01-18.23 416.37-19.67 418.73-21.11 421.58-21.11L421.58-21.11Q423.73-21.11 425.62-20.31 427.51-19.51 428.9-18.09L428.9-18.09 428.9-20.83 432.38-20.83 432.38 0 428.9 0 428.9-2.74Q427.51-1.35 425.62-0.54 423.73 0.28 421.58 0.28ZM422.06-3.13L422.06-3.13Q424.04-3.13 425.66-4.11 427.27-5.1 428.23-6.75 429.18-8.4 429.18-10.42L429.18-10.42Q429.18-12.43 428.23-14.08 427.27-15.73 425.66-16.72 424.04-17.71 422.06-17.71L422.06-17.71Q420.08-17.71 418.47-16.72 416.85-15.73 415.9-14.08 414.95-12.43 414.95-10.42L414.95-10.42Q414.95-8.4 415.9-6.75 416.85-5.1 418.47-4.11 420.08-3.13 422.06-3.13ZM447.96 0.28L447.96 0.28Q445.12 0.28 442.76-1.16 440.39-2.6 438.99-5.03 437.58-7.47 437.58-10.42L437.58-10.42Q437.58-13.37 438.99-15.8 440.39-18.23 442.76-19.67 445.12-21.11 447.96-21.11L447.96-21.11Q450.01-21.11 451.82-20.38 453.62-19.65 455.01-18.37L455.01-18.37 455.01-33.33 458.76-33.33 458.76 0 455.29 0 455.29-2.74Q453.9-1.35 452.01-0.54 450.12 0.28 447.96 0.28ZM448.45-3.13L448.45-3.13Q450.43-3.13 452.04-4.11 453.66-5.1 454.61-6.75 455.57-8.4 455.57-10.42L455.57-10.42Q455.57-12.43 454.61-14.08 453.66-15.73 452.04-16.72 450.43-17.71 448.45-17.71L448.45-17.71Q446.47-17.71 444.86-16.72 443.24-15.73 442.29-14.08 441.33-12.43 441.33-10.42L441.33-10.42Q441.33-8.4 442.29-6.75 443.24-5.1 444.86-4.11 446.47-3.13 448.45-3.13Z" opacity="1" transform="matrix(1,0,0,1,0,0)" fill="#052a57" class="slogan-text-1" data-fill-palette-color="secondary" id="text-1"></path></svg></g></svg></g></svg></g></svg></g></svg></g><defs></defs></svg><rect width="395.52" height="75.95403689451925" fill="none" stroke="none" visibility="hidden"></rect></g></svg></g></svg>